<svg id="Ebene_1" data-name="Ebene 1" xmlns="http://www.w3.org/2000/svg" xmlns:xlink="http://www.w3.org/1999/xlink" viewBox="0 0 476.3 436.77"><defs><style>.cls-1{fill:url(#Unbenannter_Verlauf_2);}.cls-2{fill:url(#Unbenannter_Verlauf_2-2);}.cls-3{fill:url(#Unbenannter_Verlauf_2-3);}.cls-4{fill:url(#Unbenannter_Verlauf_2-4);}.cls-5{fill:url(#Unbenannter_Verlauf_2-5);}.cls-6{fill:url(#Unbenannter_Verlauf_2-6);}.cls-7{fill:url(#Unbenannter_Verlauf_2-7);}.cls-8{fill:url(#Unbenannter_Verlauf_2-8);}.cls-9{fill:url(#Unbenannter_Verlauf_2-9);}.cls-10{fill:url(#Unbenannter_Verlauf_2-10);}.cls-11{fill:url(#Unbenannter_Verlauf_2-11);}.cls-12{fill:url(#Unbenannter_Verlauf_2-12);}.cls-13{fill:url(#Unbenannter_Verlauf_2-13);}.cls-14{fill:url(#Unbenannter_Verlauf_2-14);}.cls-15{fill:url(#Unbenannter_Verlauf_2-15);}.cls-16{fill:url(#Unbenannter_Verlauf_2-16);}.cls-17{fill:url(#Unbenannter_Verlauf_2-17);}.cls-18{fill:url(#Unbenannter_Verlauf_2-18);}</style><linearGradient id="Unbenannter_Verlauf_2" y1="218.38" x2="476.3" y2="218.38" gradientUnits="userSpaceOnUse"><stop offset="0" stop-color="#fb9f27"/><stop offset="1" stop-color="#f95900"/></linearGradient><linearGradient id="Unbenannter_Verlauf_2-2" x1="103.41" y1="38.49" x2="121.21" y2="38.49" xlink:href="#Unbenannter_Verlauf_2"/><linearGradient id="Unbenannter_Verlauf_2-3" x1="162.59" y1="38.49" x2="180.39" y2="38.49" xlink:href="#Unbenannter_Verlauf_2"/><linearGradient id="Unbenannter_Verlauf_2-4" x1="192.42" y1="38.49" x2="372.73" y2="38.49" xlink:href="#Unbenannter_Verlauf_2"/><linearGradient id="Unbenannter_Verlauf_2-5" x1="133.12" y1="38.49" x2="150.91" y2="38.49" xlink:href="#Unbenannter_Verlauf_2"/><linearGradient id="Unbenannter_Verlauf_2-6" x1="110.81" y1="137.34" x2="365.44" y2="137.34" xlink:href="#Unbenannter_Verlauf_2"/><linearGradient id="Unbenannter_Verlauf_2-7" x1="110.81" y1="226.12" x2="187.89" y2="226.12" xlink:href="#Unbenannter_Verlauf_2"/><linearGradient id="Unbenannter_Verlauf_2-8" x1="199.58" y1="226.12" x2="276.67" y2="226.12" xlink:href="#Unbenannter_Verlauf_2"/><linearGradient id="Unbenannter_Verlauf_2-9" x1="288.36" y1="226.12" x2="365.44" y2="226.12" xlink:href="#Unbenannter_Verlauf_2"/><linearGradient id="Unbenannter_Verlauf_2-10" x1="111.04" y1="285.22" x2="188.25" y2="285.22" xlink:href="#Unbenannter_Verlauf_2"/><linearGradient id="Unbenannter_Verlauf_2-11" x1="111.04" y1="314.81" x2="188.25" y2="314.81" xlink:href="#Unbenannter_Verlauf_2"/><linearGradient id="Unbenannter_Verlauf_2-12" x1="111.04" y1="344.4" x2="188.25" y2="344.4" xlink:href="#Unbenannter_Verlauf_2"/><linearGradient id="Unbenannter_Verlauf_2-13" x1="199.81" y1="285.22" x2="277.02" y2="285.22" xlink:href="#Unbenannter_Verlauf_2"/><linearGradient id="Unbenannter_Verlauf_2-14" x1="199.81" y1="314.81" x2="277.02" y2="314.81" xlink:href="#Unbenannter_Verlauf_2"/><linearGradient id="Unbenannter_Verlauf_2-15" x1="199.81" y1="344.4" x2="277.02" y2="344.4" xlink:href="#Unbenannter_Verlauf_2"/><linearGradient id="Unbenannter_Verlauf_2-16" x1="288.59" y1="285.22" x2="365.8" y2="285.22" xlink:href="#Unbenannter_Verlauf_2"/><linearGradient id="Unbenannter_Verlauf_2-17" x1="288.59" y1="314.81" x2="365.8" y2="314.81" xlink:href="#Unbenannter_Verlauf_2"/><linearGradient id="Unbenannter_Verlauf_2-18" x1="288.59" y1="344.4" x2="365.8" y2="344.4" xlink:href="#Unbenannter_Verlauf_2"/></defs><title>x_</title><path class="cls-1" d="M438.52,167.23a28.08,28.08,0,0,0-28-28h-8.15V0H74.05V139.18H65.83a28.08,28.08,0,0,0-28,28V389.6H0v24.15l13.56,23H462.74l13.56-23V389.6H438.52ZM402.32,157h8.15a10.26,10.26,0,0,1,10.25,10.25V389.6h-18.4ZM91.85,17.8H384.53V59.18H91.85Zm0,59.18H384.53V388.83H91.85ZM55.58,167.23A10.26,10.26,0,0,1,65.83,157h8.22V389.6H55.58ZM458.51,407.4v1.5L452.57,419H23.73L17.8,408.9v-1.5Z"/><rect class="cls-2" x="103.41" y="29.59" width="17.8" height="17.79"/><rect class="cls-3" x="162.59" y="29.59" width="17.79" height="17.79"/><rect class="cls-4" x="192.42" y="29.59" width="180.32" height="17.79"/><rect class="cls-5" x="133.12" y="29.59" width="17.79" height="17.79"/><path class="cls-6" d="M365.44,98.77H110.81v77.14H365.44Zm-17.79,59.34h-219V116.57H347.65Z"/><path class="cls-7" d="M187.89,187.55H110.81v77.13h77.08ZM170.1,246.89H128.6V205.34h41.5Z"/><path class="cls-8" d="M276.67,187.55H199.58v77.13h77.09Zm-17.8,59.34H217.38V205.34h41.49Z"/><path class="cls-9" d="M365.44,187.55H288.36v77.13h77.08Zm-17.79,59.34h-41.5V205.34h41.5Z"/><rect class="cls-10" x="111.04" y="276.32" width="77.21" height="17.8"/><rect class="cls-11" x="111.04" y="305.91" width="77.21" height="17.8"/><rect class="cls-12" x="111.04" y="335.5" width="77.21" height="17.79"/><rect class="cls-13" x="199.81" y="276.32" width="77.21" height="17.8"/><rect class="cls-14" x="199.81" y="305.91" width="77.21" height="17.8"/><rect class="cls-15" x="199.81" y="335.5" width="77.21" height="17.79"/><rect class="cls-16" x="288.59" y="276.32" width="77.21" height="17.8"/><rect class="cls-17" x="288.59" y="305.91" width="77.21" height="17.8"/><rect class="cls-18" x="288.59" y="335.5" width="77.21" height="17.79"/></svg>