<svg id="Ebene_1" data-name="Ebene 1" xmlns="http://www.w3.org/2000/svg" xmlns:xlink="http://www.w3.org/1999/xlink" viewBox="0 0 434.34 371"><defs><style>.cls-1{fill:url(#Unbenannter_Verlauf_2);}.cls-2{fill:url(#Unbenannter_Verlauf_2-2);}.cls-3{fill:url(#Unbenannter_Verlauf_2-3);}.cls-4{fill:url(#Unbenannter_Verlauf_2-4);}.cls-5{fill:url(#Unbenannter_Verlauf_2-5);}.cls-6{fill:url(#Unbenannter_Verlauf_2-6);}.cls-7{fill:url(#Unbenannter_Verlauf_2-7);}.cls-8{fill:url(#Unbenannter_Verlauf_2-8);}.cls-9{fill:url(#Unbenannter_Verlauf_2-9);}.cls-10{fill:url(#Unbenannter_Verlauf_2-10);}.cls-11{fill:url(#Unbenannter_Verlauf_2-11);}.cls-12{fill:url(#Unbenannter_Verlauf_2-12);}.cls-13{fill:url(#Unbenannter_Verlauf_2-13);}.cls-14{fill:url(#Unbenannter_Verlauf_2-14);}</style><linearGradient id="Unbenannter_Verlauf_2" x1="60.01" y1="113.34" x2="121.64" y2="113.34" gradientUnits="userSpaceOnUse"><stop offset="0" stop-color="#fb9f27"/><stop offset="1" stop-color="#f95900"/></linearGradient><linearGradient id="Unbenannter_Verlauf_2-2" x1="0" y1="185.5" x2="434.34" y2="185.5" xlink:href="#Unbenannter_Verlauf_2"/><linearGradient id="Unbenannter_Verlauf_2-3" x1="44.47" y1="175.89" x2="137.28" y2="175.89" xlink:href="#Unbenannter_Verlauf_2"/><linearGradient id="Unbenannter_Verlauf_2-4" x1="44.47" y1="270.54" x2="137.28" y2="270.54" xlink:href="#Unbenannter_Verlauf_2"/><linearGradient id="Unbenannter_Verlauf_2-5" x1="185.29" y1="113.34" x2="246.92" y2="113.34" xlink:href="#Unbenannter_Verlauf_2"/><linearGradient id="Unbenannter_Verlauf_2-6" x1="169.74" y1="175.89" x2="262.55" y2="175.89" xlink:href="#Unbenannter_Verlauf_2"/><linearGradient id="Unbenannter_Verlauf_2-7" x1="235.55" y1="295.83" x2="260.6" y2="295.83" xlink:href="#Unbenannter_Verlauf_2"/><linearGradient id="Unbenannter_Verlauf_2-8" x1="171.69" y1="295.83" x2="196.74" y2="295.83" xlink:href="#Unbenannter_Verlauf_2"/><linearGradient id="Unbenannter_Verlauf_2-9" x1="171.69" y1="244.58" x2="196.74" y2="244.58" xlink:href="#Unbenannter_Verlauf_2"/><linearGradient id="Unbenannter_Verlauf_2-10" x1="235.55" y1="244.58" x2="260.6" y2="244.58" xlink:href="#Unbenannter_Verlauf_2"/><linearGradient id="Unbenannter_Verlauf_2-11" x1="309.75" y1="113.34" x2="371.38" y2="113.34" xlink:href="#Unbenannter_Verlauf_2"/><linearGradient id="Unbenannter_Verlauf_2-12" x1="294.21" y1="175.89" x2="387.02" y2="175.89" xlink:href="#Unbenannter_Verlauf_2"/><linearGradient id="Unbenannter_Verlauf_2-13" x1="294.21" y1="270.54" x2="387.02" y2="270.54" xlink:href="#Unbenannter_Verlauf_2"/><linearGradient id="Unbenannter_Verlauf_2-14" x1="158.25" y1="294.2" x2="237.8" y2="294.2" xlink:href="#Unbenannter_Verlauf_2"/></defs><title>x_</title><rect class="cls-1" x="60.01" y="104.34" width="61.63" height="18"/><path class="cls-2" d="M389.1,0H371V18.1H334.8V0H316.71V18.1h-36.2V0h-18.1V18.1H226.22V0h-18.1V18.1H171.93V0h-18.1V18.1h-36.2V0H99.54V18.1H63.34V0H45.24V18.1H0V81.44H416.24V352.9h-279V325.37H44.47V352.9H18.1V99.54H0V371H434.34V18.1H389.1ZM119.28,352.82H62.47v-9.45h56.81Zm297-316.63V63.34H18.1V36.19Z"/><path class="cls-3" d="M44.47,216h92.81v-80.2H44.47Zm18-62.2h56.81V198H62.47Z"/><path class="cls-4" d="M44.47,310.64h92.81V230.45H44.47Zm18-62.19h56.81v44.19H62.47Z"/><rect class="cls-5" x="185.29" y="104.34" width="61.63" height="18"/><path class="cls-6" d="M169.74,216h92.81v-80.2H169.74Zm18-62.2h56.81V198H187.74Z"/><polygon class="cls-7" points="246.5 294.25 235.55 294.25 235.55 308.35 260.6 308.35 260.6 283.3 246.5 283.3 246.5 294.25"/><polygon class="cls-8" points="171.69 283.3 171.69 308.35 196.74 308.35 196.74 294.25 185.79 294.25 185.79 283.3 171.69 283.3"/><polygon class="cls-9" points="196.74 232.06 171.69 232.06 171.69 257.11 185.79 257.11 185.79 246.16 196.74 246.16 196.74 232.06"/><polygon class="cls-10" points="260.6 232.06 235.55 232.06 235.55 246.16 246.5 246.16 246.5 257.11 260.6 257.11 260.6 232.06"/><rect class="cls-11" x="309.75" y="104.34" width="61.63" height="18"/><path class="cls-12" d="M294.21,216H387v-80.2H294.21Zm18-62.2H369V198H312.21Z"/><path class="cls-13" d="M294.21,310.64H387V230.45H294.21Zm18-62.19H369v44.19H312.21Z"/><path class="cls-14" d="M158.53,335.29l.27,6c1.34-.06,32.87-1.72,52.36-23.28,9.81-10.85,14.75-24.69,14.73-41.16l11.91-2L215,247.12l-12.67,33.6,11.5-1.89c-.36,12.51-4.23,22.95-11.56,31.08-16.07,17.83-43.77,19.37-44.05,19.39Z"/></svg>