<?xml version="1.0" standalone="no"?>
<!DOCTYPE svg PUBLIC "-//W3C//DTD SVG 20010904//EN"
 "http://www.w3.org/TR/2001/REC-SVG-20010904/DTD/svg10.dtd">
<svg version="1.0" xmlns="http://www.w3.org/2000/svg"
 width="840.000000pt" height="840.000000pt" viewBox="0 0 840.000000 840.000000"
 preserveAspectRatio="xMidYMid meet">
<metadata>
Created by potrace 1.11, written by Peter Selinger 2001-2013
</metadata>
<g transform="translate(0.000000,840.000000) scale(0.100000,-0.100000)"
fill="#000000" stroke="none">
<path d="M1965 8389 c-16 -5 -41 -10 -55 -13 -49 -7 -187 -66 -245 -105 -280
-181 -417 -583 -313 -920 18 -60 72 -181 91 -206 4 -5 21 -28 37 -50 103 -137
277 -305 445 -430 44 -33 82 -62 85 -65 3 -4 23 -17 45 -30 22 -13 45 -28 50
-33 6 -4 125 -83 265 -176 141 -92 262 -174 270 -182 8 -8 41 -34 74 -59 68
-51 233 -213 291 -284 61 -74 151 -212 196 -299 48 -93 125 -283 132 -324 3
-15 8 -35 11 -43 3 -8 7 -31 10 -50 3 -19 8 -46 10 -60 42 -242 38 -626 -8
-758 -9 -23 -13 -42 -10 -42 2 0 -5 -18 -16 -40 -11 -22 -17 -40 -13 -40 4 0
2 -5 -5 -12 -7 -7 -12 -20 -12 -30 0 -10 -5 -18 -11 -18 -5 0 -8 -4 -5 -8 3
-5 -19 -55 -48 -113 -70 -137 -77 -149 -103 -186 -13 -17 -23 -34 -23 -38 0
-6 -47 -72 -60 -85 -3 -3 -17 -21 -32 -41 -61 -82 -229 -239 -348 -326 -71
-51 -247 -153 -290 -168 -3 -1 -25 -11 -50 -22 -61 -27 -217 -80 -293 -99
-118 -29 -219 -51 -277 -60 -19 -3 -42 -7 -50 -10 -8 -3 -33 -7 -55 -10 -38
-4 -55 -7 -115 -19 -14 -3 -43 -7 -65 -10 -38 -4 -61 -8 -115 -20 -14 -3 -36
-7 -50 -10 -201 -38 -445 -103 -478 -128 -6 -5 -12 -7 -12 -4 0 11 -251 -101
-261 -116 -3 -5 -9 -8 -13 -7 -4 0 -30 -15 -60 -35 -65 -43 -166 -142 -208
-204 -18 -25 -34 -48 -37 -51 -3 -3 -7 -12 -9 -20 -2 -8 -10 -22 -19 -32 -8
-9 -15 -22 -17 -30 -1 -7 -4 -17 -7 -23 -9 -15 -43 -120 -39 -120 2 0 -2 -9
-8 -20 -22 -43 -33 -233 -18 -334 13 -92 66 -228 111 -287 14 -18 25 -35 25
-37 0 -10 106 -115 150 -150 138 -107 315 -167 485 -162 55 1 111 6 125 10
122 36 158 48 212 75 67 33 126 68 145 85 6 5 26 21 44 35 57 44 143 134 205
215 73 97 134 190 134 204 0 6 5 11 10 11 6 0 10 4 10 9 0 5 25 51 55 102 30
52 55 100 55 107 0 6 4 12 8 12 4 0 13 12 19 28 6 15 28 56 49 92 20 36 45 81
56 100 64 121 253 399 322 474 20 21 36 40 36 41 0 15 238 220 337 290 124 88
401 222 519 250 10 3 55 14 99 25 44 11 96 22 115 25 19 2 53 8 75 12 53 9
366 10 430 1 68 -10 78 -12 93 -21 6 -5 12 -6 12 -3 0 5 122 -38 185 -65 17
-7 32 -13 35 -13 15 -4 166 -82 168 -88 2 -5 8 -8 13 -8 8 0 116 -67 129 -80
3 -3 32 -25 65 -49 119 -88 343 -332 395 -430 7 -14 17 -30 22 -35 32 -38 133
-244 176 -361 53 -142 118 -400 127 -500 3 -33 16 -138 22 -170 3 -16 7 -55 9
-85 1 -30 4 -55 5 -55 1 0 3 -22 4 -50 2 -27 6 -68 9 -90 3 -22 8 -65 11 -95
31 -311 72 -484 158 -660 22 -47 43 -87 47 -90 3 -3 24 -30 46 -60 23 -30 59
-73 80 -95 67 -69 210 -170 254 -181 8 -2 34 -10 57 -18 97 -35 312 -45 385
-17 14 5 28 8 30 5 8 -7 175 63 234 99 65 39 161 131 206 198 34 49 110 199
101 199 -3 0 -1 6 5 13 6 6 10 14 10 17 -1 3 4 28 11 55 34 144 30 302 -13
450 -18 62 -31 95 -38 95 -4 0 -8 8 -8 18 0 57 -211 308 -375 445 -29 25 -110
90 -130 105 -6 4 -35 26 -65 48 -45 35 -354 240 -465 309 -16 10 -38 27 -49
37 -11 10 -23 18 -28 18 -6 0 -134 93 -192 140 -80 65 -121 102 -191 174 -107
110 -184 207 -244 306 -28 46 -122 237 -139 280 -8 19 -17 44 -22 55 -11 25
-40 123 -45 150 -2 11 -4 20 -5 20 -1 0 -4 11 -6 25 -5 34 -11 69 -18 105 -4
17 -9 53 -12 80 -3 28 -9 77 -13 110 -6 52 -7 310 -1 310 1 0 4 14 6 30 9 77
13 95 34 170 12 44 29 92 36 107 8 15 14 29 13 30 0 2 4 16 10 31 6 16 11 30
11 33 0 6 98 205 113 229 55 89 121 190 133 202 8 8 14 18 14 22 0 10 203 215
255 259 42 34 185 134 238 166 174 104 423 193 672 242 11 2 43 8 70 14 28 5
65 12 83 15 39 6 80 13 109 19 11 3 43 8 70 12 26 5 50 9 53 9 15 3 90 16 120
21 69 10 78 12 97 18 10 3 33 8 51 11 46 8 133 29 222 55 41 12 80 23 85 24 6
2 19 6 30 10 11 5 38 15 60 23 82 30 210 87 216 96 3 5 8 7 10 6 7 -5 102 53
146 88 134 107 229 243 282 404 22 66 25 80 37 154 7 40 8 203 1 240 -12 70
-34 139 -62 200 -32 71 -119 195 -136 195 -5 0 -9 7 -9 15 0 8 -4 15 -9 15 -5
0 -16 6 -23 13 -129 123 -338 205 -522 205 -120 0 -305 -53 -391 -112 -16 -12
-30 -19 -30 -16 0 6 -93 -58 -123 -84 -56 -49 -120 -115 -162 -166 -25 -30
-47 -57 -50 -60 -3 -3 -23 -32 -45 -65 -21 -33 -41 -62 -44 -65 -6 -5 -11 -14
-59 -99 -13 -25 -38 -67 -53 -93 -16 -27 -29 -51 -29 -53 0 -2 -20 -38 -45
-79 -25 -42 -45 -83 -45 -91 0 -8 -4 -15 -8 -15 -4 0 -20 -24 -35 -52 -99
-187 -269 -438 -369 -543 -21 -22 -38 -43 -38 -47 0 -5 -4 -8 -9 -8 -4 0 -33
-24 -63 -52 -68 -66 -99 -92 -168 -144 -64 -47 -196 -134 -205 -134 -3 0 -22
-10 -43 -23 -62 -39 -293 -134 -342 -142 -8 -1 -22 -5 -30 -8 -24 -9 -91 -26
-134 -33 -21 -3 -48 -8 -60 -10 -62 -14 -116 -18 -266 -18 -212 -1 -268 6
-398 53 -101 36 -281 117 -292 131 -3 4 -17 13 -31 21 -65 34 -95 53 -148 92
-31 23 -63 48 -71 55 -8 7 -26 22 -40 33 -116 96 -249 248 -344 396 -52 80
-147 267 -167 328 -7 22 -16 45 -19 50 -4 6 -12 30 -19 55 -8 25 -16 52 -19
60 -13 39 -69 267 -76 310 -3 19 -9 64 -15 100 -6 36 -13 92 -16 125 -3 33 -8
76 -11 95 -3 19 -7 58 -9 85 -7 96 -22 232 -40 380 -3 27 -21 131 -30 180 -30
152 -100 327 -177 441 -32 48 -157 179 -209 219 -54 43 -179 108 -209 109 -8
1 -22 6 -30 11 -19 13 -295 16 -335 4z m2483 -3662 c139 -48 259 -155 324
-289 109 -223 68 -470 -107 -642 -48 -48 -144 -116 -163 -116 -6 0 -23 -7 -38
-15 -16 -8 -38 -15 -50 -15 -11 0 -24 -3 -28 -7 -21 -21 -203 -18 -286 6 -117
33 -256 143 -317 251 -96 169 -105 387 -22 541 91 170 238 275 434 312 55 11
187 -3 253 -26z"/>
</g>
</svg>
